<?xml version="1.0" encoding="UTF-8"?>
<svg width="196px" height="53px" viewBox="0 0 196 53" version="1.1" xmlns="http://www.w3.org/2000/svg" xmlns:xlink="http://www.w3.org/1999/xlink">
    <!-- Generator: Sketch 50.2 (55047) - http://www.bohemiancoding.com/sketch -->
    <title>logo-new</title>
    <desc>Created with Sketch.</desc>
    <defs></defs>
    <g id="Page-1" stroke="none" stroke-width="1" fill="none" fill-rule="evenodd">
        <g id="logo-new" fill-rule="nonzero">
            <path d="M64.3867,33.7143 L64.3867,23.2673 C64.3867,22.7753 64.6327,22.5283 65.1247,22.5283 C65.6177,22.5283 65.8637,22.7753 65.8637,23.2673 L65.8637,32.9763 L70.7357,32.9763 C71.2277,32.9763 71.4737,33.2223 71.4737,33.7143 C71.4737,34.2063 71.2277,34.4523 70.7357,34.4523 L65.1247,34.4523 C64.6327,34.4523 64.3867,34.2063 64.3867,33.7143" id="Fill-1" fill="#3A3A39"></path>
            <path d="M73.7246,33.7143 L73.7246,23.2673 C73.7246,22.7753 73.9706,22.5283 74.4636,22.5283 C74.9556,22.5283 75.2016,22.7753 75.2016,23.2673 L75.2016,32.9763 L80.0736,32.9763 C80.5656,32.9763 80.8116,33.2223 80.8116,33.7143 C80.8116,34.2063 80.5656,34.4523 80.0736,34.4523 L74.4636,34.4523 C73.9706,34.4523 73.7246,34.2063 73.7246,33.7143" id="Fill-3" fill="#3A3A39"></path>
            <path d="M83.2393,34.2768 C83.1223,34.1598 83.0633,33.9728 83.0633,33.7148 L83.0633,23.2848 C83.0633,23.0278 83.1223,22.8398 83.2393,22.7228 C83.3563,22.6058 83.5433,22.5468 83.8013,22.5468 C84.0593,22.5468 84.2473,22.6058 84.3643,22.7228 C84.4813,22.8398 84.5403,23.0278 84.5403,23.2848 L84.5403,33.7148 C84.5403,33.9728 84.4813,34.1598 84.3643,34.2768 C84.2473,34.3938 84.0593,34.4528 83.8013,34.4528 C83.5433,34.4528 83.3563,34.3938 83.2393,34.2768" id="Fill-5" fill="#3A3A39"></path>
            <path d="M97.4839,22.7226 C97.6129,22.8516 97.6779,23.0336 97.6779,23.2676 L97.6779,33.7146 C97.6779,33.9496 97.6129,34.1316 97.4839,34.2596 C97.3549,34.3886 97.1729,34.4526 96.9399,34.4526 C96.7989,34.4526 96.6699,34.4176 96.5529,34.3476 C96.4349,34.2766 96.3179,34.1656 96.2009,34.0136 L89.4999,25.3776 L89.4999,33.7146 C89.4999,33.9496 89.4349,34.1316 89.3069,34.2596 C89.1779,34.3886 88.9959,34.4526 88.7609,34.4526 C88.5259,34.4526 88.3449,34.3886 88.2159,34.2596 C88.0869,34.1316 88.0229,33.9496 88.0229,33.7146 L88.0229,23.2676 C88.0229,23.0336 88.0869,22.8516 88.2159,22.7226 C88.3449,22.5936 88.5259,22.5286 88.7609,22.5286 C88.9019,22.5286 89.0279,22.5646 89.1389,22.6346 C89.2509,22.7046 89.3709,22.8166 89.4999,22.9686 L96.2009,31.6036 L96.2009,23.2676 C96.2009,23.0336 96.2649,22.8516 96.3939,22.7226 C96.5229,22.5936 96.7049,22.5286 96.9399,22.5286 C97.1729,22.5286 97.3549,22.5936 97.4839,22.7226" id="Fill-7" fill="#3A3A39"></path>
            <path d="M101.3535,34.2592 C101.2245,34.1312 101.1605,33.9492 101.1605,33.7142 L101.1605,23.2672 C101.1605,23.0332 101.2245,22.8512 101.3535,22.7222 C101.4825,22.5932 101.6645,22.5292 101.8985,22.5292 L108.3705,22.5292 C108.6055,22.5292 108.7875,22.5932 108.9155,22.7222 C109.0445,22.8512 109.1095,23.0332 109.1095,23.2672 C109.1095,23.5022 109.0445,23.6842 108.9155,23.8132 C108.7875,23.9422 108.6055,24.0062 108.3705,24.0062 L102.6365,24.0062 L102.6365,27.6992 L106.1715,27.6992 C106.4065,27.6992 106.5875,27.7642 106.7165,27.8932 C106.8465,28.0222 106.9115,28.2032 106.9115,28.4382 C106.9115,28.6732 106.8465,28.8552 106.7165,28.9842 C106.5875,29.1132 106.4065,29.1762 106.1715,29.1762 L102.6365,29.1762 L102.6365,33.7142 C102.6365,33.9492 102.5725,34.1312 102.4445,34.2592 C102.3145,34.3882 102.1325,34.4522 101.8985,34.4522 C101.6645,34.4522 101.4825,34.3882 101.3535,34.2592" id="Fill-9" fill="#3A3A39"></path>
            <path d="M116.2139,32.976 C116.8599,32.976 117.3549,32.899 117.6999,32.747 C118.0459,32.595 118.2959,32.346 118.4479,31.999 C118.6009,31.654 118.6769,31.158 118.6769,30.513 L118.6769,26.469 C118.6769,25.836 118.6009,25.343 118.4479,24.992 C118.2959,24.64 118.0429,24.388 117.6929,24.235 C117.3399,24.082 116.8479,24.006 116.2139,24.006 L114.1049,24.006 C113.4709,23.995 112.9789,24.065 112.6269,24.217 C112.2759,24.37 112.0229,24.622 111.8709,24.974 C111.7179,25.326 111.6419,25.818 111.6419,26.451 L111.6419,30.513 C111.6419,31.158 111.7179,31.654 111.8709,31.999 C112.0229,32.346 112.2719,32.595 112.6179,32.747 C112.9629,32.899 113.4589,32.976 114.1049,32.976 L116.2139,32.976 Z M111.1229,33.495 C110.4839,32.855 110.1639,31.862 110.1639,30.513 L110.1639,26.451 C110.1639,25.103 110.4859,24.109 111.1319,23.47 C111.7769,22.831 112.7679,22.518 114.1049,22.529 L116.2139,22.529 C117.5629,22.529 118.5559,22.849 119.1949,23.487 C119.8349,24.126 120.1539,25.121 120.1539,26.469 L120.1539,30.513 C120.1539,31.862 119.8349,32.855 119.1949,33.495 C118.5559,34.133 117.5629,34.453 116.2139,34.453 L114.1049,34.453 C112.7559,34.453 111.7629,34.133 111.1229,33.495 Z" id="Fill-11" fill="#3A3A39"></path>
            <path d="M129.915,25.8525 C129.915,25.1965 129.773,24.7245 129.492,24.4375 C129.211,24.1495 128.736,24.0055 128.068,24.0055 L124.691,24.0055 L124.691,28.2275 L128.068,28.2275 C128.736,28.2275 129.211,28.0865 129.492,27.8055 C129.773,27.5235 129.915,27.0485 129.915,26.3805 L129.915,25.8525 Z M130.741,28.6135 C130.307,29.1765 129.68,29.5225 128.859,29.6515 L131.163,33.4855 C131.233,33.6025 131.269,33.7315 131.269,33.8725 C131.269,34.1315 131.14,34.3355 130.882,34.4885 C130.729,34.5825 130.595,34.6295 130.477,34.6295 C130.242,34.6295 130.043,34.4995 129.879,34.2425 L127.206,29.7925 L127.153,29.7045 L124.691,29.7045 L124.691,33.7145 C124.691,33.9495 124.626,34.1315 124.498,34.2595 C124.369,34.3885 124.187,34.4525 123.952,34.4525 C123.718,34.4525 123.536,34.3885 123.407,34.2595 C123.278,34.1315 123.214,33.9495 123.214,33.7145 L123.214,23.2675 C123.214,23.0335 123.278,22.8515 123.407,22.7225 C123.536,22.5935 123.718,22.5285 123.952,22.5285 L128.068,22.5285 C129.146,22.5285 129.97,22.8135 130.539,23.3815 C131.107,23.9505 131.392,24.7745 131.392,25.8525 L131.392,26.3805 C131.392,27.3075 131.175,28.0515 130.741,28.6135 Z" id="Fill-13" fill="#3A3A39"></path>
            <path d="M145.0918,23.2675 L145.0918,33.7145 C145.0918,33.9495 145.0278,34.1315 144.8988,34.2595 C144.7688,34.3885 144.5868,34.4525 144.3538,34.4525 C144.1178,34.4525 143.9368,34.3885 143.8088,34.2595 C143.6798,34.1315 143.6138,33.9495 143.6138,33.7145 L143.6138,25.5715 L140.3788,30.3375 C140.2608,30.5015 140.1328,30.6215 139.9908,30.6985 C139.8508,30.7735 139.6808,30.8125 139.4828,30.8125 C139.3408,30.8125 139.2148,30.7735 139.1038,30.6985 C138.9918,30.6215 138.8778,30.5015 138.7608,30.3375 L135.5068,25.5545 L135.5068,33.7145 C135.5068,33.9495 135.4428,34.1315 135.3138,34.2595 C135.1848,34.3885 135.0028,34.4525 134.7688,34.4525 C134.5328,34.4525 134.3518,34.3885 134.2238,34.2595 C134.0948,34.1315 134.0288,33.9495 134.0288,33.7145 L134.0288,23.2675 C134.0288,23.0335 134.0948,22.8515 134.2238,22.7225 C134.3518,22.5935 134.5328,22.5285 134.7688,22.5285 C135.0968,22.5285 135.3658,22.6865 135.5768,23.0045 L139.5868,29.0365 L143.5968,23.0045 C143.7958,22.6865 144.0948,22.5285 144.4938,22.5285 C144.8928,22.5285 145.0918,22.7745 145.0918,23.2675" id="Fill-15" fill="#3A3A39"></path>
            <path d="M150.4551,30.1967 L154.7471,30.1967 L152.5491,24.8677 L150.4551,30.1967 Z M157.7361,33.7667 C157.7361,34.0487 157.5781,34.2537 157.2621,34.3827 C157.1561,34.4287 157.0391,34.4527 156.9101,34.4527 C156.6291,34.4527 156.4241,34.2947 156.2941,33.9777 L155.3451,31.6747 L149.8751,31.6747 L148.9611,33.9777 C148.8311,34.2947 148.6261,34.4527 148.3461,34.4527 C148.2271,34.4527 148.1171,34.4287 148.0121,34.3827 C147.6831,34.2657 147.5181,34.0607 147.5181,33.7667 C147.5181,33.6377 147.5421,33.5207 147.5891,33.4147 L151.7751,23.1097 C151.9501,22.7227 152.2261,22.5287 152.6011,22.5287 L152.6371,22.5287 C153.0231,22.5527 153.2811,22.7457 153.4101,23.1097 L157.6661,33.4147 C157.7131,33.5207 157.7361,33.6377 157.7361,33.7667 Z" id="Fill-17" fill="#3A3A39"></path>
            <path d="M161.5361,33.7143 L161.5361,24.0243 L158.1241,24.0243 C157.6321,24.0243 157.3861,23.7773 157.3861,23.2853 C157.3861,22.7933 157.6321,22.5463 158.1241,22.5463 L166.4251,22.5463 C166.9171,22.5463 167.1631,22.7933 167.1631,23.2853 C167.1631,23.7773 166.9171,24.0243 166.4251,24.0243 L163.0131,24.0243 L163.0131,33.7143 C163.0131,33.9493 162.9481,34.1313 162.8201,34.2593 C162.6911,34.3883 162.5101,34.4523 162.2741,34.4523 C161.7821,34.4523 161.5361,34.2063 161.5361,33.7143" id="Fill-19" fill="#3A3A39"></path>
            <path d="M169.5029,34.2768 C169.3859,34.1598 169.3269,33.9728 169.3269,33.7148 L169.3269,23.2848 C169.3269,23.0278 169.3859,22.8398 169.5029,22.7228 C169.6199,22.6058 169.8069,22.5468 170.0649,22.5468 C170.3229,22.5468 170.5109,22.6058 170.6279,22.7228 C170.7449,22.8398 170.8039,23.0278 170.8039,23.2848 L170.8039,33.7148 C170.8039,33.9728 170.7449,34.1598 170.6279,34.2768 C170.5109,34.3938 170.3229,34.4528 170.0649,34.4528 C169.8069,34.4528 169.6199,34.3938 169.5029,34.2768" id="Fill-21" fill="#3A3A39"></path>
            <path d="M174.8223,33.4946 C174.1823,32.8546 173.8633,31.8616 173.8633,30.5136 L173.8633,26.4686 C173.8633,25.1206 174.1823,24.1236 174.8223,23.4786 C175.4623,22.8336 176.4493,22.5176 177.7863,22.5286 L179.9133,22.5286 C181.0153,22.5286 181.8573,22.7576 182.4373,23.2146 C183.0173,23.6716 183.3553,24.3876 183.4483,25.3606 C183.4843,25.6066 183.4363,25.7946 183.3083,25.9226 C183.1783,26.0526 182.9913,26.1166 182.7453,26.1166 C182.5103,26.1166 182.3323,26.0556 182.2093,25.9326 C182.0863,25.8086 182.0073,25.6246 181.9713,25.3776 C181.9133,24.8496 181.7313,24.4896 181.4263,24.2966 C181.1213,24.1026 180.6173,24.0056 179.9133,24.0056 L177.7863,24.0056 C177.1533,23.9946 176.6603,24.0646 176.3083,24.2176 C175.9573,24.3696 175.7083,24.6216 175.5603,24.9736 C175.4143,25.3256 175.3413,25.8236 175.3413,26.4686 L175.3413,30.5136 C175.3413,31.1576 175.4183,31.6536 175.5703,31.9996 C175.7213,32.3466 175.9703,32.5956 176.3173,32.7466 C176.6633,32.8986 177.1583,32.9756 177.8033,32.9756 L179.9133,32.9756 C180.6173,32.9756 181.1213,32.8786 181.4263,32.6856 C181.7313,32.4916 181.9133,32.1316 181.9713,31.6036 C182.0073,31.3576 182.0863,31.1736 182.2093,31.0496 C182.3323,30.9276 182.5103,30.8646 182.7453,30.8646 C182.9913,30.8646 183.1783,30.9306 183.3083,31.0586 C183.4363,31.1876 183.4843,31.3756 183.4483,31.6216 C183.3553,32.5956 183.0173,33.3096 182.4373,33.7666 C181.8573,34.2236 181.0153,34.4526 179.9133,34.4526 L177.8033,34.4526 C176.4553,34.4526 175.4623,34.1336 174.8223,33.4946" id="Fill-23" fill="#3A3A39"></path>
            <path d="M186.9746,33.8461 C186.4176,33.4421 186.0686,32.8181 185.9286,31.9731 C185.9056,31.7271 185.9566,31.5361 186.0866,31.4021 C186.2156,31.2671 186.4036,31.2001 186.6496,31.2001 C186.8836,31.2001 187.0596,31.2551 187.1766,31.3671 C187.2936,31.4781 187.3756,31.6621 187.4226,31.9201 C187.5056,32.3191 187.6896,32.5951 187.9776,32.7461 C188.2646,32.8991 188.7126,32.9761 189.3226,32.9761 L191.8556,32.9761 C192.3706,32.9761 192.7666,32.9161 193.0416,32.8001 C193.3176,32.6831 193.5136,32.4861 193.6316,32.2101 C193.7486,31.9351 193.8066,31.5451 193.8066,31.0411 C193.8066,30.2911 193.6666,29.7751 193.3856,29.4931 C193.1036,29.2121 192.5936,29.0721 191.8556,29.0721 L189.6746,29.0721 C188.5726,29.0721 187.7516,28.8021 187.2126,28.2621 C186.6726,27.7231 186.4036,26.8961 186.4036,25.7831 C186.4036,24.6801 186.6696,23.8631 187.2036,23.3291 C187.7366,22.7951 188.5546,22.5291 189.6566,22.5291 L191.7496,22.5291 C193.6016,22.5291 194.6686,23.3031 194.9506,24.8501 C194.9856,25.0961 194.9386,25.2871 194.8096,25.4221 C194.6806,25.5571 194.4876,25.6241 194.2296,25.6241 C193.9956,25.6241 193.8196,25.5661 193.7026,25.4481 C193.5836,25.3311 193.5086,25.1501 193.4726,24.9031 C193.3786,24.5631 193.2036,24.3281 192.9456,24.2001 C192.6876,24.0711 192.2886,24.0061 191.7496,24.0061 L189.6566,24.0061 C189.1756,24.0061 188.8096,24.0591 188.5576,24.1651 C188.3046,24.2701 188.1296,24.4491 188.0296,24.7011 C187.9306,24.9531 187.8806,25.3131 187.8806,25.7831 C187.8806,26.2631 187.9336,26.6291 188.0386,26.8811 C188.1436,27.1341 188.3236,27.3161 188.5756,27.4271 C188.8276,27.5381 189.1936,27.5941 189.6746,27.5941 L191.8556,27.5941 C193.0156,27.5941 193.8776,27.8751 194.4406,28.4381 C195.0026,29.0001 195.2856,29.8681 195.2856,31.0411 C195.2856,32.2011 195.0026,33.0611 194.4406,33.6171 C193.8776,34.1751 193.0156,34.4521 191.8556,34.4521 L189.3226,34.4521 C188.3146,34.4521 187.5316,34.2501 186.9746,33.8461" id="Fill-25" fill="#3A3A39"></path>
            <path d="M17.4429,43.2807 C15.9219,43.6037 14.4269,42.6337 14.1039,41.1117 L8.5889,15.1647 L2.2669,16.5087 C0.7459,16.8317 -0.2251,18.3267 0.0979,19.8487 L5.1989,43.8457 C6.4899,49.9197 12.4819,53.8097 18.5549,52.5187 L42.5409,47.4217 C44.0629,47.0967 45.0339,45.6017 44.7109,44.0807 L43.3689,37.7697 L17.4429,43.2807 Z" id="Fill-27" fill="#007AB5"></path>
            <path d="M34.5151,9.6542 C36.0361,9.3312 37.5311,10.3022 37.8541,11.8232 L43.3691,37.7702 L49.6911,36.4262 C51.2121,36.1032 52.1831,34.6082 51.8601,33.0862 L46.7591,9.0892 C45.4681,3.0152 39.4761,-0.8758 33.4031,0.4162 L9.4161,5.5142 C7.8951,5.8372 6.9241,7.3332 7.2471,8.8542 L8.5881,15.1652 L34.5151,9.6542 Z" id="Fill-29" fill="#007AB5"></path>
            <path d="M37.4497,36.7299 C37.3747,36.5579 37.3167,36.3759 37.2757,36.1859 L32.9317,15.7489 L28.4477,16.7019 L24.8247,17.4709 C23.3037,17.7939 21.8087,16.8239 21.4857,15.3019 L20.9007,12.5479 L11.3437,14.5799 C12.6737,14.2969 13.9847,15.0049 14.5077,16.2059 C14.5827,16.3769 14.6417,16.5579 14.6817,16.7489 L19.0257,37.1869 L23.5097,36.2339 L27.1327,35.4629 C28.6537,35.1399 30.1487,36.1119 30.4717,37.6319 L31.0577,40.3869 L40.6147,38.3549 C39.2837,38.6379 37.9727,37.9299 37.4497,36.7299" id="Fill-31" fill="#005698"></path>
        </g>
    </g>
</svg>